<?xml version="1.0" encoding="utf-8"?>

<!DOCTYPE svg PUBLIC "-//W3C//DTD SVG 1.1//EN" "http://www.w3.org/Graphics/SVG/1.1/DTD/svg11.dtd">
<svg version="1.1" id="Layer_1" xmlns="http://www.w3.org/2000/svg" xmlns:xlink="http://www.w3.org/1999/xlink" x="0px" y="0px"
	 viewBox="0 0 1670 1670" enable-background="new 0 0 1670 1670" xml:space="preserve">
<g>
	<path d="M1562.242,107.758c17.832,0.035,35.664,0.023,53.496-0.002c-0.002-17.831-0.013-35.664,0.003-53.497
		c-17.833,0.015-35.666,0.005-53.497,0.003C1562.219,72.094,1562.206,89.926,1562.242,107.758z M1562.242,1562.242
		c-0.035,17.832-0.023,35.664,0.002,53.496c17.831-0.002,35.664-0.013,53.497,0.003c-0.015-17.833-0.005-35.666-0.003-53.497
		C1597.906,1562.219,1580.074,1562.206,1562.242,1562.242z M107.758,1562.242c-17.832-0.035-35.664-0.023-53.496,0.002
		c0.002,17.831,0.013,35.664-0.003,53.497c17.833-0.015,35.666-0.005,53.497-0.003
		C107.781,1597.906,107.794,1580.074,107.758,1562.242z M107.758,107.758c0.035-17.832,0.023-35.664-0.002-53.496
		c-17.831,0.002-35.664,0.013-53.497-0.003c0.015,17.833,0.005,35.666,0.003,53.497C72.094,107.781,89.926,107.794,107.758,107.758z
		 M1634.986,35.014c0.011,19.592,0.044,89.346-0.067,92.142c-25.642,0.017-51.281-0.009-76.92,0.012
		c-0.005,48.687-0.021,559.886,0,707.832c-0.022,147.947-0.005,659.145,0,707.833c25.639,0.022,51.278-0.005,76.92,0.012
		c0.111,2.795,0.078,72.55,0.067,92.142c-19.592,0.011-89.346,0.044-92.142-0.067c-0.017-25.642,0.01-51.281-0.012-76.92
		c-48.687-0.005-559.886-0.021-707.833,0c-147.947-0.022-659.145-0.005-707.832,0c-0.022,25.639,0.005,51.278-0.012,76.92
		c-2.795,0.111-72.55,0.078-92.142,0.067c-0.012-19.592-0.044-89.346,0.067-92.142c25.642-0.017,51.281,0.01,76.92-0.012
		c0.005-48.687,0.021-559.886,0-707.833c0.022-147.947,0.005-659.145,0-707.832c-25.639-0.022-51.278,0.005-76.92-0.012
		c-0.111-2.795-0.078-72.55-0.067-92.142c19.592-0.012,89.346-0.044,92.142,0.067c0.017,25.642-0.009,51.281,0.012,76.92
		c48.687,0.005,559.886,0.021,707.832,0c147.947,0.022,659.145,0.005,707.833,0c0.022-25.639-0.005-51.278,0.012-76.92
		C1545.64,34.969,1615.395,35.002,1634.986,35.014z M1538.741,835c-0.003-145.597-0.009-653.073,0.006-703.747
		c-50.674,0.016-558.15,0.01-703.747,0.006c-145.597,0.003-653.073,0.009-703.747-0.006c0.016,50.674,0.01,558.15,0.006,703.747
		c0.003,145.597,0.009,653.073-0.006,703.747c50.674-0.016,558.15-0.01,703.747-0.006c145.597-0.003,653.073-0.009,703.747,0.006
		C1538.731,1488.073,1538.737,980.597,1538.741,835z"/>
	<path d="M1516.359,153.641c-0.024,31.702,1.8,530.117,2.22,681.359c-0.42,151.242-2.244,649.657-2.22,681.359
		c-31.702-0.024-530.117,1.8-681.359,2.22c-151.242-0.42-649.657-2.244-681.359-2.22c0.024-31.702-1.8-530.117-2.22-681.359
		c0.42-151.242,2.244-649.657,2.22-681.359c31.702,0.024,530.117-1.8,681.359-2.22
		C986.242,151.841,1484.657,153.665,1516.359,153.641z M1481.638,835c0.011-138.852,0.008-277.705-0.001-416.559
		c-3.845-0.055-12.702,1.821-12.4-13.889c-6.833-0.033-13.754-4.465-17.285-13.782c33.168-19.412,42.622-69.623-3.416-102.819
		c-0.041-14.507,0.003-29.016-0.019-43.522c5.279-0.003,10.561-0.007,15.845,0.003c0.011-12.931,0.012-25.864,0.004-38.797
		c-12.933-0.008-25.866-0.007-38.797,0.004c0.01,5.284,0.005,10.566,0.003,15.845c-14.507-0.022-29.016,0.022-43.522-0.02
		c-33.196-46.038-83.408-36.584-102.819-3.416c-9.316-3.531-13.749-10.452-13.781-17.285c-15.71,0.302-13.834-8.555-13.889-12.4
		c-138.855-0.009-277.707-0.012-416.559-0.001c-138.852-0.011-277.705-0.008-416.559,0.001c-0.055,3.845,1.821,12.702-13.889,12.4
		c-0.033,6.833-4.465,13.754-13.782,17.285c-19.412-33.168-69.623-42.622-102.819,3.416c-14.507,0.041-29.016-0.003-43.522,0.02
		c-0.003-5.279-0.007-10.561,0.003-15.845c-12.931-0.011-25.864-0.012-38.797-0.004c-0.008,12.933-0.007,25.866,0.004,38.797
		c5.284-0.01,10.566-0.005,15.845-0.003c-0.022,14.507,0.022,29.016-0.02,43.522c-46.038,33.196-36.584,83.408-3.416,102.819
		c-3.531,9.316-10.452,13.749-17.285,13.782c0.302,15.71-8.555,13.834-12.4,13.889c-0.009,138.854-0.012,277.707-0.001,416.559
		c-0.011,138.852-0.008,277.705,0.001,416.559c3.845,0.055,12.702-1.821,12.4,13.889c6.833,0.033,13.754,4.465,17.285,13.781
		c-33.168,19.412-42.622,69.623,3.416,102.819c0.041,14.507-0.003,29.016,0.02,43.522c-5.279,0.003-10.561,0.007-15.845-0.003
		c-0.011,12.931-0.012,25.864-0.004,38.797c12.933,0.008,25.866,0.007,38.797-0.004c-0.01-5.284-0.005-10.566-0.003-15.845
		c14.507,0.022,29.016-0.022,43.522,0.019c33.196,46.038,83.408,36.584,102.819,3.416c9.316,3.531,13.749,10.452,13.782,17.285
		c15.71-0.302,13.834,8.556,13.889,12.4c138.854,0.009,277.707,0.012,416.559,0.001c138.852,0.011,277.705,0.008,416.559-0.001
		c0.055-3.845-1.821-12.702,13.889-12.4c0.033-6.833,4.465-13.754,13.781-17.285c19.412,33.168,69.623,42.622,102.819-3.416
		c14.507-0.041,29.016,0.003,43.522-0.019c0.003,5.279,0.007,10.561-0.003,15.845c12.931,0.011,25.864,0.012,38.797,0.004
		c0.008-12.933,0.007-25.866-0.004-38.797c-5.284,0.01-10.566,0.005-15.845,0.003c0.022-14.507-0.022-29.016,0.019-43.522
		c46.038-33.196,36.584-83.408,3.416-102.819c3.531-9.316,10.452-13.749,17.285-13.781c-0.302-15.71,8.556-13.834,12.4-13.889
		C1481.646,1112.705,1481.649,973.852,1481.638,835z"/>
	<path d="M1439.258,230.742c9.355,9.976-15.835,23.516-30.271,30.271C1415.741,246.578,1429.281,221.388,1439.258,230.742z"/>
	<path d="M1439.258,1439.258c-9.976,9.355-23.516-15.835-30.271-30.271C1423.422,1415.741,1448.612,1429.281,1439.258,1439.258z"/>
	<path d="M230.742,1439.258c-9.355-9.976,15.835-23.516,30.271-30.271C254.259,1423.422,240.719,1448.612,230.742,1439.258z"/>
	<path d="M230.742,230.742c9.976-9.355,23.516,15.835,30.271,30.271C246.578,254.259,221.388,240.719,230.742,230.742z"/>
	<path d="M1431.407,260.275c20.504-1.132,17.191,16.466,4.622,14.465c-8.451,1.394-13.645-6.939-26.162-2.547
		c-1.104,0.37-2.102,0.981-3.189,1.377c0.615-0.727,1.311-1.387,1.876-2.158c-1.773,0.428-3.516,1.019-5.131,1.873
		C1403.305,271.975,1415.196,259.277,1431.407,260.275z"/>
	<path d="M260.275,238.593c-1.132-20.504,16.466-17.191,14.465-4.622c1.394,8.451-6.939,13.645-2.547,26.162
		c0.37,1.105,0.981,2.102,1.377,3.19c-0.727-0.616-1.387-1.311-2.158-1.876c0.428,1.773,1.019,3.516,1.873,5.131
		C271.975,266.695,259.277,254.804,260.275,238.593z"/>
	<path d="M238.593,1409.725c-20.504,1.132-17.191-16.466-4.622-14.465c8.451-1.394,13.645,6.939,26.162,2.547
		c1.105-0.37,2.102-0.981,3.19-1.377c-0.616,0.727-1.311,1.387-1.876,2.158c1.773-0.428,3.516-1.019,5.131-1.873
		C266.695,1398.025,254.804,1410.723,238.593,1409.725z"/>
	<path d="M1409.725,1431.407c1.132,20.504-16.466,17.191-14.465,4.622c-1.394-8.451,6.939-13.645,2.547-26.162
		c-0.37-1.104-0.981-2.102-1.377-3.189c0.727,0.615,1.387,1.311,2.158,1.876c-0.428-1.773-1.019-3.516-1.873-5.131
		C1398.025,1403.305,1410.723,1415.196,1409.725,1431.407z"/>
	<path d="M1431.407,1409.725c20.504,1.132,17.191-16.466,4.622-14.465c-8.451-1.394-13.645,6.939-26.162,2.547
		c-1.104-0.37-2.102-0.981-3.189-1.377c0.615,0.727,1.311,1.387,1.876,2.158c-1.773-0.428-3.516-1.019-5.131-1.873
		C1403.305,1398.025,1415.196,1410.723,1431.407,1409.725z"/>
	<path d="M1409.725,238.593c1.132-20.504-16.466-17.191-14.465-4.622c-1.394,8.451,6.939,13.645,2.547,26.162
		c-0.37,1.105-0.981,2.102-1.377,3.19c0.727-0.616,1.387-1.311,2.158-1.876c-0.428,1.773-1.019,3.516-1.873,5.131
		C1398.025,266.695,1410.723,254.804,1409.725,238.593z"/>
	<path d="M238.593,260.275c-20.504-1.132-17.191,16.466-4.622,14.465c8.451,1.394,13.645-6.939,26.162-2.547
		c1.105,0.37,2.102,0.981,3.19,1.377c-0.616-0.727-1.311-1.387-1.876-2.158c1.773,0.428,3.516,1.019,5.131,1.873
		C266.695,271.975,254.804,259.277,238.593,260.275z"/>
	<path d="M260.275,1431.407c-1.132,20.504,16.466,17.191,14.465,4.622c1.394-8.451-6.939-13.645-2.547-26.162
		c0.37-1.104,0.981-2.102,1.377-3.189c-0.727,0.615-1.387,1.311-2.158,1.876c0.428-1.773,1.019-3.516,1.873-5.131
		C271.975,1403.305,259.277,1415.196,260.275,1431.407z"/>
	<path d="M1415.46,282.275c32.726,10.562,16.865,53.064-12.796,40.74c-8.682-3.088-12.331-13.904-7.041-21.642
		c5.632-8.607,15.028-5.947,16.808-6.152c2.837-0.192,5.615,0.691,8.055,2.087c-6.07-15.159-48.231-7.84-34.993,20.363
		c2.271,4.967,4.628,8.066,2.61,14.779c-1.09,3.723-6.574,10.586-2.301,18.738c-2.637-2.564-4.783-5.603-6.539-8.826
		c-1.183-0.258-2.155-0.971-3.194-1.533c0.448,2,0.798,4.236,2.328,5.734c4.46,5.274,2.615,4.15,8.121,11.135
		c4.727,5.556,4.689,6.89,7.104,14.093c-2.095-0.455-4.189-1.039-6.077-2.066c-0.046,0.127-0.136,0.382-0.182,0.508
		c-2.172-0.1-4.86-1.821-5.924-1.915c0.533,1.237,11.654,16.507,32.959,12.884c24.557-4.272,30.584-32.477,14.942-43.32
		c-24.243-17.61-43.761,24.834-17.389,32.196c-0.124,0.421-0.248,0.839-0.355,1.27c-1.535-0.204-2.946-0.851-4.394-1.346
		c-0.112,0.498,0.319,0.657,0.674,0.844c-26.33-5.74-17.276-39.654,4.559-44.42c17.087-3.988,40.59,11.024,35.81,34.706
		c-4.372,21.583-25.491,28.616-38.728,28.388c-35.318,0.636-52.891-34.48-46.345-66.362c3.138-15.651,13.24-33.909,28.495-39.114
		C1393.227,283.582,1402.748,278.23,1415.46,282.275z"/>
	<path d="M282.275,254.54c10.562-32.726,53.064-16.865,40.74,12.796c-3.088,8.683-13.904,12.331-21.642,7.041
		c-8.607-5.632-5.947-15.028-6.152-16.808c-0.192-2.837,0.691-5.615,2.087-8.055c-15.159,6.07-7.84,48.231,20.363,34.993
		c4.967-2.271,8.066-4.628,14.779-2.61c3.723,1.09,10.586,6.574,18.738,2.301c-2.564,2.637-5.603,4.783-8.826,6.539
		c-0.258,1.183-0.971,2.155-1.533,3.194c2-0.448,4.236-0.798,5.734-2.328c5.274-4.46,4.15-2.615,11.135-8.121
		c5.556-4.727,6.89-4.689,14.093-7.104c-0.455,2.095-1.039,4.189-2.066,6.077c0.127,0.046,0.382,0.136,0.508,0.182
		c-0.1,2.172-1.821,4.861-1.915,5.924c1.237-0.533,16.507-11.654,12.884-32.959c-4.272-24.558-32.477-30.584-43.32-14.942
		c-17.61,24.243,24.834,43.761,32.196,17.389c0.421,0.124,0.839,0.248,1.27,0.355c-0.204,1.535-0.851,2.946-1.346,4.394
		c0.498,0.112,0.657-0.319,0.844-0.674c-5.74,26.33-39.654,17.276-44.42-4.559c-3.988-17.087,11.024-40.59,34.706-35.81
		c21.583,4.372,28.616,25.491,28.388,38.728c0.636,35.318-34.48,52.891-66.362,46.345c-15.651-3.138-33.909-13.24-39.114-28.495
		C283.582,276.773,278.23,267.252,282.275,254.54z"/>
	<path d="M254.54,1387.725c-32.726-10.562-16.865-53.064,12.796-40.74c8.683,3.088,12.331,13.905,7.041,21.642
		c-5.632,8.607-15.028,5.947-16.808,6.152c-2.837,0.192-5.615-0.691-8.055-2.087c6.07,15.159,48.231,7.84,34.993-20.363
		c-2.271-4.967-4.628-8.067-2.61-14.779c1.09-3.723,6.574-10.586,2.301-18.738c2.637,2.564,4.783,5.603,6.539,8.826
		c1.183,0.258,2.155,0.971,3.194,1.533c-0.448-2-0.798-4.235-2.328-5.734c-4.46-5.274-2.615-4.15-8.121-11.135
		c-4.727-5.556-4.689-6.89-7.104-14.093c2.095,0.455,4.189,1.039,6.077,2.066c0.046-0.127,0.136-0.382,0.182-0.508
		c2.172,0.1,4.861,1.821,5.924,1.915c-0.533-1.237-11.654-16.507-32.959-12.884c-24.558,4.272-30.584,32.477-14.942,43.32
		c24.243,17.61,43.761-24.834,17.389-32.196c0.124-0.421,0.248-0.839,0.355-1.27c1.535,0.204,2.946,0.851,4.394,1.346
		c0.112-0.499-0.319-0.657-0.674-0.844c26.33,5.74,17.276,39.654-4.559,44.42c-17.087,3.988-40.59-11.025-35.81-34.706
		c4.372-21.583,25.491-28.616,38.728-28.388c35.318-0.636,52.891,34.48,46.345,66.362c-3.138,15.651-13.24,33.909-28.495,39.115
		C276.773,1386.418,267.252,1391.77,254.54,1387.725z"/>
	<path d="M1387.725,1415.46c-10.562,32.726-53.064,16.865-40.74-12.796c3.088-8.682,13.905-12.331,21.642-7.041
		c8.607,5.632,5.947,15.028,6.152,16.808c0.192,2.837-0.691,5.615-2.087,8.055c15.159-6.07,7.84-48.231-20.363-34.993
		c-4.967,2.271-8.067,4.628-14.779,2.61c-3.723-1.09-10.586-6.574-18.738-2.301c2.564-2.637,5.603-4.783,8.826-6.539
		c0.258-1.183,0.971-2.155,1.533-3.194c-2,0.448-4.235,0.798-5.734,2.328c-5.274,4.46-4.15,2.615-11.135,8.121
		c-5.556,4.727-6.89,4.689-14.093,7.104c0.455-2.095,1.039-4.189,2.066-6.077c-0.127-0.046-0.382-0.136-0.508-0.182
		c0.1-2.172,1.821-4.86,1.915-5.924c-1.237,0.533-16.507,11.654-12.884,32.959c4.272,24.557,32.477,30.584,43.32,14.942
		c17.61-24.243-24.834-43.761-32.196-17.389c-0.421-0.124-0.839-0.248-1.27-0.355c0.204-1.535,0.851-2.946,1.346-4.394
		c-0.499-0.112-0.657,0.319-0.844,0.674c5.74-26.33,39.654-17.276,44.42,4.559c3.988,17.087-11.025,40.59-34.706,35.81
		c-21.583-4.372-28.616-25.491-28.388-38.728c-0.636-35.318,34.48-52.891,66.362-46.345c15.651,3.138,33.909,13.24,39.115,28.495
		C1386.418,1393.227,1391.77,1402.748,1387.725,1415.46z"/>
	<path d="M1415.46,1387.725c32.726-10.562,16.865-53.064-12.796-40.74c-8.682,3.088-12.331,13.905-7.041,21.642
		c5.632,8.607,15.028,5.947,16.808,6.152c2.837,0.192,5.615-0.691,8.055-2.087c-6.07,15.159-48.231,7.84-34.993-20.363
		c2.271-4.967,4.628-8.067,2.61-14.779c-1.09-3.723-6.574-10.586-2.301-18.738c-2.637,2.564-4.783,5.603-6.539,8.826
		c-1.183,0.258-2.155,0.971-3.194,1.533c0.448-2,0.798-4.235,2.328-5.734c4.46-5.274,2.615-4.15,8.121-11.135
		c4.727-5.556,4.689-6.89,7.104-14.093c-2.095,0.455-4.189,1.039-6.077,2.066c-0.046-0.127-0.136-0.382-0.182-0.508
		c-2.172,0.1-4.86,1.821-5.924,1.915c0.533-1.237,11.654-16.507,32.959-12.884c24.557,4.272,30.584,32.477,14.942,43.32
		c-24.243,17.61-43.761-24.834-17.389-32.196c-0.124-0.421-0.248-0.839-0.355-1.27c-1.535,0.204-2.946,0.851-4.394,1.346
		c-0.112-0.499,0.319-0.657,0.674-0.844c-26.33,5.74-17.276,39.654,4.559,44.42c17.087,3.988,40.59-11.025,35.81-34.706
		c-4.372-21.583-25.491-28.616-38.728-28.388c-35.318-0.636-52.891,34.48-46.345,66.362c3.138,15.651,13.24,33.909,28.495,39.115
		C1393.227,1386.418,1402.748,1391.77,1415.46,1387.725z"/>
	<path d="M1387.725,254.54c-10.562-32.726-53.064-16.865-40.74,12.796c3.088,8.683,13.905,12.331,21.642,7.041
		c8.607-5.632,5.947-15.028,6.152-16.808c0.192-2.837-0.691-5.615-2.087-8.055c15.159,6.07,7.84,48.231-20.363,34.993
		c-4.967-2.271-8.067-4.628-14.779-2.61c-3.723,1.09-10.586,6.574-18.738,2.301c2.564,2.637,5.603,4.783,8.826,6.539
		c0.258,1.183,0.971,2.155,1.533,3.194c-2-0.448-4.235-0.798-5.734-2.328c-5.274-4.46-4.15-2.615-11.135-8.121
		c-5.556-4.727-6.89-4.689-14.093-7.104c0.455,2.095,1.039,4.189,2.066,6.077c-0.127,0.046-0.382,0.136-0.508,0.182
		c0.1,2.172,1.821,4.861,1.915,5.924c-1.237-0.533-16.507-11.654-12.884-32.959c4.272-24.558,32.477-30.584,43.32-14.942
		c17.61,24.243-24.834,43.761-32.196,17.389c-0.421,0.124-0.839,0.248-1.27,0.355c0.204,1.535,0.851,2.946,1.346,4.394
		c-0.499,0.112-0.657-0.319-0.844-0.674c5.74,26.33,39.654,17.276,44.42-4.559c3.988-17.087-11.025-40.59-34.706-35.81
		c-21.583,4.372-28.616,25.491-28.388,38.728c-0.636,35.318,34.48,52.891,66.362,46.345c15.651-3.138,33.909-13.24,39.115-28.495
		C1386.418,276.773,1391.77,267.252,1387.725,254.54z"/>
	<path d="M254.54,282.275c-32.726,10.562-16.865,53.064,12.796,40.74c8.683-3.088,12.331-13.904,7.041-21.642
		c-5.632-8.607-15.028-5.947-16.808-6.152c-2.837-0.192-5.615,0.691-8.055,2.087c6.07-15.159,48.231-7.84,34.993,20.363
		c-2.271,4.967-4.628,8.066-2.61,14.779c1.09,3.723,6.574,10.586,2.301,18.738c2.637-2.564,4.783-5.603,6.539-8.826
		c1.183-0.258,2.155-0.971,3.194-1.533c-0.448,2-0.798,4.236-2.328,5.734c-4.46,5.274-2.615,4.15-8.121,11.135
		c-4.727,5.556-4.689,6.89-7.104,14.093c2.095-0.455,4.189-1.039,6.077-2.066c0.046,0.127,0.136,0.382,0.182,0.508
		c2.172-0.1,4.861-1.821,5.924-1.915c-0.533,1.237-11.654,16.507-32.959,12.884c-24.558-4.272-30.584-32.477-14.942-43.32
		c24.243-17.61,43.761,24.834,17.389,32.196c0.124,0.421,0.248,0.839,0.355,1.27c1.535-0.204,2.946-0.851,4.394-1.346
		c0.112,0.498-0.319,0.657-0.674,0.844c26.33-5.74,17.276-39.654-4.559-44.42c-17.087-3.988-40.59,11.024-35.81,34.706
		c4.372,21.583,25.491,28.616,38.728,28.388c35.318,0.636,52.891-34.48,46.345-66.362c-3.138-15.651-13.24-33.909-28.495-39.114
		C276.773,283.582,267.252,278.23,254.54,282.275z"/>
	<path d="M282.275,1415.46c10.562,32.726,53.064,16.865,40.74-12.796c-3.088-8.682-13.904-12.331-21.642-7.041
		c-8.607,5.632-5.947,15.028-6.152,16.808c-0.192,2.837,0.691,5.615,2.087,8.055c-15.159-6.07-7.84-48.231,20.363-34.993
		c4.967,2.271,8.066,4.628,14.779,2.61c3.723-1.09,10.586-6.574,18.738-2.301c-2.564-2.637-5.603-4.783-8.826-6.539
		c-0.258-1.183-0.971-2.155-1.533-3.194c2,0.448,4.236,0.798,5.734,2.328c5.274,4.46,4.15,2.615,11.135,8.121
		c5.556,4.727,6.89,4.689,14.093,7.104c-0.455-2.095-1.039-4.189-2.066-6.077c0.127-0.046,0.382-0.136,0.508-0.182
		c-0.1-2.172-1.821-4.86-1.915-5.924c1.237,0.533,16.507,11.654,12.884,32.959c-4.272,24.557-32.477,30.584-43.32,14.942
		c-17.61-24.243,24.834-43.761,32.196-17.389c0.421-0.124,0.839-0.248,1.27-0.355c-0.204-1.535-0.851-2.946-1.346-4.394
		c0.498-0.112,0.657,0.319,0.844,0.674c-5.74-26.33-39.654-17.276-44.42,4.559c-3.988,17.087,11.024,40.59,34.706,35.81
		c21.583-4.372,28.616-25.491,28.388-38.728c0.636-35.318-34.48-52.891-66.362-46.345c-15.651,3.138-33.909,13.24-39.114,28.495
		C283.582,1393.227,278.23,1402.748,282.275,1415.46z"/>
	<path d="M1363.124,306.876c-12.15,18.944-9.336,44.407,0.961,62.984c-1.866-0.124-3.413-1.304-5.026-2.126
		c0.316,0.81,0.725,1.584,1.119,2.363c-10.541-3.082-17.089-16.559-20.65-26.945c-5.064,1.404-9.464,1.346-12.735,0.057
		c-1.29-3.271-1.347-7.671,0.057-12.735c-10.386-3.56-23.863-10.109-26.945-20.65c0.779,0.394,1.552,0.803,2.363,1.119
		c-0.822-1.613-2.002-3.16-2.126-5.026C1318.717,316.212,1344.18,319.026,1363.124,306.876z"/>
	<path d="M1363.124,1363.124c-18.944-12.15-44.407-9.336-62.984,0.961c0.124-1.866,1.304-3.413,2.126-5.026
		c-0.81,0.316-1.584,0.725-2.363,1.119c3.083-10.541,16.559-17.089,26.945-20.65c-1.404-5.064-1.346-9.464-0.057-12.735
		c3.271-1.29,7.671-1.347,12.735,0.057c3.56-10.386,10.109-23.863,20.65-26.945c-0.394,0.779-0.803,1.552-1.119,2.363
		c1.613-0.822,3.16-2.002,5.026-2.126C1353.788,1318.717,1350.974,1344.18,1363.124,1363.124z"/>
	<path d="M306.876,1363.124c12.15-18.944,9.336-44.407-0.961-62.984c1.866,0.124,3.413,1.304,5.026,2.126
		c-0.316-0.81-0.725-1.584-1.119-2.363c10.541,3.083,17.089,16.559,20.65,26.945c5.064-1.404,9.464-1.346,12.735-0.057
		c1.289,3.271,1.347,7.671-0.057,12.735c10.386,3.56,23.863,10.109,26.945,20.65c-0.779-0.394-1.552-0.803-2.363-1.119
		c0.822,1.613,2.002,3.16,2.126,5.026C351.283,1353.788,325.82,1350.974,306.876,1363.124z"/>
	<path d="M306.876,306.876c18.944,12.15,44.407,9.336,62.984-0.961c-0.124,1.866-1.304,3.413-2.126,5.026
		c0.81-0.316,1.584-0.725,2.363-1.119c-3.082,10.541-16.559,17.089-26.945,20.65c1.404,5.064,1.346,9.464,0.057,12.735
		c-3.271,1.289-7.671,1.347-12.735-0.057c-3.56,10.386-10.109,23.863-20.65,26.945c0.394-0.779,0.803-1.552,1.119-2.363
		c-1.613,0.822-3.16,2.002-5.026,2.126C316.212,351.283,319.026,325.82,306.876,306.876z"/>
	<path d="M1369.317,379.187c1.455,0.822,2.598,2.082,4.021,2.949c0-0.993-0.937-1.596-1.36-2.413
		c22.488,16.144,33.483,36.684,46.021,25.486c2.511-2.162,7.178-11.498,18.404-5.712c-1.159,12.164-9.778,19.398-20.654,18.954
		c-0.029,0.104-0.083,0.316-0.11,0.421c1.64,0.191,10.028-0.081,13.02,9.444c29.382,6.858,12.909,28.335,25.107,36.959
		c-11.676,0.579-12.886-3.646-14.373-3.786c-0.051,1.482-0.158,2.988,0.175,4.452c-5.318,0.397-10.741-1.199-15.086-4.277
		c-0.65-0.362-1.141-1.112-1.922-1.146c12.463,23.785,21.998,16.987,32.096,33.076c7.643-4.325,4.998-12.797,10.125-16.837
		c1.805-1.474,4.272-1.839,6.517-1.399c-3.176,5.593,2.198,27.367-10.028,29.04c0.095,2.099-0.251,4.294-1.431,6.075
		c-4.56,7.3-14.814-0.137-15.341-0.282c3.536,6.262,7.905,11.746,15.03,11.059c0.192,2.102,0.041,4.231-0.479,6.277
		c2.187,4.926-0.828,7.389-0.854,8.201c0.879,3.026,8.331,9.509,4.929,19.221c-5.086-0.289-7.026-2.807-8.142-3.06
		c1.033,2.436,6.18,15.367,6.191,15.385c3.51,6.397,2.729,10.164,3.092,11.541c2.707,10.714,0.878,6.432,2.746,9.429
		c5.478,7.917,6.66,16.598,1.165,24.197c-0.523,0.605-0.35,1.438-0.409,2.175c-1.777,23.78-12.493,29.327-6.057,48.994
		c-7.717-10.641-9.918-25.303-4.892-37.55c-3.793,1.513-8.099,1.01-11.76-0.625c7.418-21.092,9.996-34.723,1.968-68.967
		c-8.993-37.048-33.235-116.098-69.296-166.568C1375.081,386.211,1372.298,382.615,1369.317,379.187z"/>
	<path d="M379.187,300.683c0.822-1.455,2.082-2.598,2.949-4.021c-0.993,0-1.596,0.937-2.413,1.36
		c16.144-22.488,36.684-33.483,25.486-46.021c-2.162-2.511-11.498-7.178-5.712-18.404c12.164,1.159,19.398,9.778,18.954,20.654
		c0.104,0.029,0.316,0.083,0.421,0.11c0.191-1.64-0.081-10.028,9.444-13.02c6.858-29.382,28.335-12.909,36.959-25.107
		c0.579,11.676-3.646,12.886-3.786,14.373c1.482,0.051,2.988,0.158,4.452-0.175c0.397,5.318-1.199,10.741-4.277,15.086
		c-0.362,0.65-1.112,1.141-1.146,1.922c23.785-12.463,16.987-21.998,33.076-32.096c-4.325-7.643-12.797-4.998-16.837-10.125
		c-1.474-1.805-1.839-4.272-1.399-6.517c5.593,3.176,27.367-2.198,29.04,10.028c2.099-0.095,4.294,0.251,6.075,1.43
		c7.3,4.56-0.137,14.814-0.282,15.341c6.262-3.536,11.746-7.905,11.059-15.03c2.102-0.192,4.231-0.041,6.277,0.479
		c4.926-2.187,7.389,0.828,8.201,0.854c3.026-0.879,9.509-8.331,19.221-4.929c-0.289,5.086-2.807,7.026-3.06,8.142
		c2.436-1.033,15.367-6.18,15.385-6.191c6.397-3.51,10.164-2.729,11.541-3.092c10.714-2.707,6.432-0.878,9.429-2.747
		c7.917-5.478,16.598-6.66,24.197-1.165c0.605,0.523,1.438,0.35,2.175,0.409c23.78,1.778,29.327,12.493,48.994,6.057
		c-10.641,7.717-25.303,9.918-37.55,4.892c1.513,3.793,1.01,8.099-0.625,11.76c-21.092-7.418-34.723-9.996-68.967-1.968
		c-37.048,8.993-116.098,33.235-166.568,69.296C386.211,294.919,382.615,297.702,379.187,300.683z"/>
	<path d="M300.683,1290.813c-1.455-0.822-2.598-2.083-4.021-2.949c0,0.993,0.937,1.596,1.36,2.413
		c-22.488-16.144-33.483-36.684-46.021-25.486c-2.511,2.162-7.178,11.498-18.404,5.712c1.159-12.164,9.778-19.398,20.654-18.954
		c0.029-0.104,0.083-0.316,0.11-0.421c-1.64-0.191-10.028,0.081-13.02-9.444c-29.382-6.858-12.909-28.335-25.107-36.959
		c11.676-0.579,12.886,3.646,14.373,3.786c0.051-1.482,0.158-2.988-0.175-4.452c5.318-0.397,10.741,1.199,15.086,4.277
		c0.65,0.362,1.141,1.112,1.922,1.146c-12.463-23.785-21.998-16.988-32.096-33.076c-7.643,4.325-4.998,12.797-10.125,16.837
		c-1.805,1.474-4.272,1.839-6.517,1.399c3.176-5.593-2.198-27.367,10.028-29.041c-0.095-2.099,0.251-4.294,1.43-6.075
		c4.56-7.3,14.814,0.137,15.341,0.282c-3.536-6.261-7.905-11.745-15.03-11.059c-0.192-2.102-0.041-4.231,0.479-6.277
		c-2.187-4.926,0.828-7.389,0.854-8.201c-0.879-3.026-8.331-9.509-4.929-19.221c5.086,0.289,7.026,2.807,8.142,3.06
		c-1.033-2.436-6.18-15.367-6.191-15.385c-3.51-6.397-2.729-10.164-3.092-11.541c-2.707-10.714-0.878-6.432-2.747-9.429
		c-5.478-7.917-6.66-16.598-1.165-24.197c0.523-0.606,0.35-1.438,0.409-2.175c1.778-23.78,12.493-29.327,6.057-48.994
		c7.717,10.641,9.918,25.303,4.892,37.55c3.793-1.513,8.099-1.01,11.76,0.625c-7.418,21.092-9.996,34.723-1.968,68.967
		c8.993,37.048,33.235,116.098,69.296,166.568C294.919,1283.789,297.702,1287.385,300.683,1290.813z"/>
	<path d="M1290.813,1369.317c-0.822,1.455-2.083,2.598-2.949,4.021c0.993,0,1.596-0.937,2.413-1.36
		c-16.144,22.488-36.684,33.483-25.486,46.021c2.162,2.511,11.498,7.178,5.712,18.404c-12.164-1.159-19.398-9.778-18.954-20.654
		c-0.104-0.029-0.316-0.083-0.421-0.11c-0.191,1.64,0.081,10.028-9.444,13.02c-6.858,29.382-28.335,12.909-36.959,25.107
		c-0.579-11.676,3.646-12.886,3.786-14.373c-1.482-0.051-2.988-0.158-4.452,0.175c-0.397-5.318,1.199-10.741,4.277-15.086
		c0.362-0.65,1.112-1.141,1.146-1.922c-23.785,12.463-16.988,21.998-33.076,32.096c4.325,7.643,12.797,4.998,16.837,10.125
		c1.474,1.805,1.839,4.272,1.399,6.517c-5.593-3.176-27.367,2.198-29.041-10.028c-2.099,0.095-4.294-0.251-6.075-1.431
		c-7.3-4.56,0.137-14.814,0.282-15.341c-6.261,3.536-11.745,7.905-11.059,15.03c-2.102,0.192-4.231,0.041-6.277-0.479
		c-4.926,2.187-7.389-0.828-8.201-0.854c-3.026,0.879-9.509,8.331-19.221,4.929c0.289-5.086,2.807-7.026,3.06-8.142
		c-2.436,1.033-15.367,6.18-15.385,6.191c-6.397,3.51-10.164,2.729-11.541,3.092c-10.714,2.707-6.432,0.878-9.429,2.746
		c-7.917,5.478-16.598,6.66-24.197,1.165c-0.606-0.523-1.438-0.35-2.175-0.409c-23.78-1.777-29.327-12.493-48.994-6.057
		c10.641-7.717,25.303-9.918,37.55-4.892c-1.513-3.793-1.01-8.099,0.625-11.76c21.092,7.418,34.723,9.996,68.967,1.968
		c37.048-8.993,116.098-33.235,166.568-69.296C1283.789,1375.081,1287.385,1372.298,1290.813,1369.317z"/>
	<path d="M1369.317,1290.813c1.455-0.822,2.598-2.083,4.021-2.949c0,0.993-0.937,1.596-1.36,2.413
		c22.488-16.144,33.483-36.684,46.021-25.486c2.511,2.162,7.178,11.498,18.404,5.712c-1.159-12.164-9.778-19.398-20.654-18.954
		c-0.029-0.104-0.083-0.316-0.11-0.421c1.64-0.191,10.028,0.081,13.02-9.444c29.382-6.858,12.909-28.335,25.107-36.959
		c-11.676-0.579-12.886,3.646-14.373,3.786c-0.051-1.482-0.158-2.988,0.175-4.452c-5.318-0.397-10.741,1.199-15.086,4.277
		c-0.65,0.362-1.141,1.112-1.922,1.146c12.463-23.785,21.998-16.988,32.096-33.076c7.643,4.325,4.998,12.797,10.125,16.837
		c1.805,1.474,4.272,1.839,6.517,1.399c-3.176-5.593,2.198-27.367-10.028-29.041c0.095-2.099-0.251-4.294-1.431-6.075
		c-4.56-7.3-14.814,0.137-15.341,0.282c3.536-6.261,7.905-11.745,15.03-11.059c0.192-2.102,0.041-4.231-0.479-6.277
		c2.187-4.926-0.828-7.389-0.854-8.201c0.879-3.026,8.331-9.509,4.929-19.221c-5.086,0.289-7.026,2.807-8.142,3.06
		c1.033-2.436,6.18-15.367,6.191-15.385c3.51-6.397,2.729-10.164,3.092-11.541c2.707-10.714,0.878-6.432,2.746-9.429
		c5.478-7.917,6.66-16.598,1.165-24.197c-0.523-0.606-0.35-1.438-0.409-2.175c-1.777-23.78-12.493-29.327-6.057-48.994
		c-7.717,10.641-9.918,25.303-4.892,37.55c-3.793-1.513-8.099-1.01-11.76,0.625c7.418,21.092,9.996,34.723,1.968,68.967
		c-8.993,37.048-33.235,116.098-69.296,166.568C1375.081,1283.789,1372.298,1287.385,1369.317,1290.813z"/>
	<path d="M1290.813,300.683c-0.822-1.455-2.083-2.598-2.949-4.021c0.993,0,1.596,0.937,2.413,1.36
		c-16.144-22.488-36.684-33.483-25.486-46.021c2.162-2.511,11.498-7.178,5.712-18.404c-12.164,1.159-19.398,9.778-18.954,20.654
		c-0.104,0.029-0.316,0.083-0.421,0.11c-0.191-1.64,0.081-10.028-9.444-13.02c-6.858-29.382-28.335-12.909-36.959-25.107
		c-0.579,11.676,3.646,12.886,3.786,14.373c-1.482,0.051-2.988,0.158-4.452-0.175c-0.397,5.318,1.199,10.741,4.277,15.086
		c0.362,0.65,1.112,1.141,1.146,1.922c-23.785-12.463-16.988-21.998-33.076-32.096c4.325-7.643,12.797-4.998,16.837-10.125
		c1.474-1.805,1.839-4.272,1.399-6.517c-5.593,3.176-27.367-2.198-29.041,10.028c-2.099-0.095-4.294,0.251-6.075,1.43
		c-7.3,4.56,0.137,14.814,0.282,15.341c-6.261-3.536-11.745-7.905-11.059-15.03c-2.102-0.192-4.231-0.041-6.277,0.479
		c-4.926-2.187-7.389,0.828-8.201,0.854c-3.026-0.879-9.509-8.331-19.221-4.929c0.289,5.086,2.807,7.026,3.06,8.142
		c-2.436-1.033-15.367-6.18-15.385-6.191c-6.397-3.51-10.164-2.729-11.541-3.092c-10.714-2.707-6.432-0.878-9.429-2.747
		c-7.917-5.478-16.598-6.66-24.197-1.165c-0.606,0.523-1.438,0.35-2.175,0.409c-23.78,1.778-29.327,12.493-48.994,6.057
		c10.641,7.717,25.303,9.918,37.55,4.892c-1.513,3.793-1.01,8.099,0.625,11.76c21.092-7.418,34.723-9.996,68.967-1.968
		c37.048,8.993,116.098,33.235,166.568,69.296C1283.789,294.919,1287.385,297.702,1290.813,300.683z"/>
	<path d="M300.683,379.187c-1.455,0.822-2.598,2.082-4.021,2.949c0-0.993,0.937-1.596,1.36-2.413
		c-22.488,16.144-33.483,36.684-46.021,25.486c-2.511-2.162-7.178-11.498-18.404-5.712c1.159,12.164,9.778,19.398,20.654,18.954
		c0.029,0.104,0.083,0.316,0.11,0.421c-1.64,0.191-10.028-0.081-13.02,9.444c-29.382,6.858-12.909,28.335-25.107,36.959
		c11.676,0.579,12.886-3.646,14.373-3.786c0.051,1.482,0.158,2.988-0.175,4.452c5.318,0.397,10.741-1.199,15.086-4.277
		c0.65-0.362,1.141-1.112,1.922-1.146c-12.463,23.785-21.998,16.987-32.096,33.076c-7.643-4.325-4.998-12.797-10.125-16.837
		c-1.805-1.474-4.272-1.839-6.517-1.399c3.176,5.593-2.198,27.367,10.028,29.04c-0.095,2.099,0.251,4.294,1.43,6.075
		c4.56,7.3,14.814-0.137,15.341-0.282c-3.536,6.262-7.905,11.746-15.03,11.059c-0.192,2.102-0.041,4.231,0.479,6.277
		c-2.187,4.926,0.828,7.389,0.854,8.201c-0.879,3.026-8.331,9.509-4.929,19.221c5.086-0.289,7.026-2.807,8.142-3.06
		c-1.033,2.436-6.18,15.367-6.191,15.385c-3.51,6.397-2.729,10.164-3.092,11.541c-2.707,10.714-0.878,6.432-2.747,9.429
		c-5.478,7.917-6.66,16.598-1.165,24.197c0.523,0.605,0.35,1.438,0.409,2.175c1.778,23.78,12.493,29.327,6.057,48.994
		c7.717-10.641,9.918-25.303,4.892-37.55c3.793,1.513,8.099,1.01,11.76-0.625c-7.418-21.092-9.996-34.723-1.968-68.967
		c8.993-37.048,33.235-116.098,69.296-166.568C294.919,386.211,297.702,382.615,300.683,379.187z"/>
	<path d="M379.187,1369.317c0.822,1.455,2.082,2.598,2.949,4.021c-0.993,0-1.596-0.937-2.413-1.36
		c16.144,22.488,36.684,33.483,25.486,46.021c-2.162,2.511-11.498,7.178-5.712,18.404c12.164-1.159,19.398-9.778,18.954-20.654
		c0.104-0.029,0.316-0.083,0.421-0.11c0.191,1.64-0.081,10.028,9.444,13.02c6.858,29.382,28.335,12.909,36.959,25.107
		c0.579-11.676-3.646-12.886-3.786-14.373c1.482-0.051,2.988-0.158,4.452,0.175c0.397-5.318-1.199-10.741-4.277-15.086
		c-0.362-0.65-1.112-1.141-1.146-1.922c23.785,12.463,16.987,21.998,33.076,32.096c-4.325,7.643-12.797,4.998-16.837,10.125
		c-1.474,1.805-1.839,4.272-1.399,6.517c5.593-3.176,27.367,2.198,29.04-10.028c2.099,0.095,4.294-0.251,6.075-1.431
		c7.3-4.56-0.137-14.814-0.282-15.341c6.262,3.536,11.746,7.905,11.059,15.03c2.102,0.192,4.231,0.041,6.277-0.479
		c4.926,2.187,7.389-0.828,8.201-0.854c3.026,0.879,9.509,8.331,19.221,4.929c-0.289-5.086-2.807-7.026-3.06-8.142
		c2.436,1.033,15.367,6.18,15.385,6.191c6.397,3.51,10.164,2.729,11.541,3.092c10.714,2.707,6.432,0.878,9.429,2.746
		c7.917,5.478,16.598,6.66,24.197,1.165c0.605-0.523,1.438-0.35,2.175-0.409c23.78-1.777,29.327-12.493,48.994-6.057
		c-10.641-7.717-25.303-9.918-37.55-4.892c1.513-3.793,1.01-8.099-0.625-11.76c-21.092,7.418-34.723,9.996-68.967,1.968
		c-37.048-8.993-116.098-33.235-166.568-69.296C386.211,1375.081,382.615,1372.298,379.187,1369.317z"/>
</g>
</svg>
